<svg xmlns="http://www.w3.org/2000/svg" viewBox="0 0 700 407" width="700" height="407" preserveAspectRatio="xMidYMid meet" style="width: 100%; height: 100%; transform: translate3d(0px, 0px, 0px); content-visibility: visible;"><defs><clipPath id="__lottie_element_2"><rect width="700" height="407" x="0" y="0"></rect></clipPath><clipPath id="__lottie_element_5"><path fill="#ffffff" clip-rule="nonzero" d=" M361.7929992675781,135.31199645996094 C361.7929992675781,135.31199645996094 -350,135.31199645996094 -350,135.31199645996094 C-350,135.31199645996094 -350,205.94700622558594 -350,205.94700622558594 C-350,205.94700622558594 361.7929992675781,205.94700622558594 361.7929992675781,205.94700622558594 C361.7929992675781,205.94700622558594 361.7929992675781,135.31199645996094 361.7929992675781,135.31199645996094" fill-opacity="1"></path></clipPath><clipPath id="__lottie_element_7"><path fill="#ffffff" clip-rule="nonzero" d=" M351.4227600097656,-44.18897247314453 C351.4227600097656,-44.18897247314453 -352.4842529296875,-44.18897247314453 -352.4842529296875,-44.18897247314453 C-352.4842529296875,-44.18897247314453 -352.4987487792969,180.24343872070312 -352.4987487792969,180.24343872070312 C-352.4987487792969,180.24343872070312 351.40826416015625,180.24343872070312 351.40826416015625,180.24343872070312 C351.40826416015625,180.24343872070312 351.4227600097656,-44.18897247314453 351.4227600097656,-44.18897247314453" fill-opacity="1"></path></clipPath></defs><g clip-path="url(#__lottie_element_2)"><g clip-path="url(#__lottie_element_7)" style="display: block;" transform="matrix(1.899999976158142,0,0,1.899999976158142,350,128.20252990722656)" opacity="1"><path fill="rgb(32,33,36)" fill-opacity="1" d=" M7.926000118255615,166.96400451660156 C7.926000118255615,117.96499633789062 33.117000579833984,-207.5 108.9990005493164,-207.5 C108.9990005493164,-207.5 218.00100708007812,-207.5 218.00100708007812,-207.5 C66.23600006103516,-207.5 15.854000091552734,117.96199798583984 15.854000091552734,166.96400451660156 M7.926000118255615,166.96400451660156 C7.926000118255615,117.96499633789062 33.117000579833984,-207.5 108.9990005493164,-207.5 C108.9990005493164,-207.5 218.00100708007812,-207.5 218.00100708007812,-207.5 C66.23600006103516,-207.5 15.854000091552734,117.96199798583984 15.854000091552734,166.96400451660156 M0.0020000000949949026,166.96400451660156 C0.0020000000949949026,117.96499633789062 0.0020000000949949026,-207.5 0.0020000000949949026,-207.5 C0.0020000000949949026,-207.5 -109,-207.5 -109,-207.5 C-33.117000579833984,-207.5 -7.926000118255615,117.96199798583984 -7.926000118255615,166.96400451660156 M0.0020000000949949026,166.96400451660156 C0.0020000000949949026,117.96499633789062 0.0020000000949949026,-207.5 0.0020000000949949026,-207.5 C0.0020000000949949026,-207.5 -109,-207.5 -109,-207.5 C-33.117000579833984,-207.5 -7.926000118255615,117.96199798583984 -7.926000118255615,166.96400451660156 M-15.85099983215332,166.96400451660156 C-15.85099983215332,117.96499633789062 -66.23300170898438,-207.5 -217.9980010986328,-207.5 C-217.9980010986328,-207.5 -327,-207.5 -327,-207.5 C-99.35199737548828,-207.5 -23.780000686645508,117.96199798583984 -23.780000686645508,166.96400451660156 M-15.85099983215332,166.96400451660156 C-15.85099983215332,117.96499633789062 -66.23300170898438,-207.5 -217.9980010986328,-207.5 C-217.9980010986328,-207.5 -327,-207.5 -327,-207.5 C-99.35199737548828,-207.5 -23.780000686645508,117.96199798583984 -23.780000686645508,166.96400451660156 M23.780000686645508,166.96400451660156 C23.780000686645508,117.96499633789062 99.35299682617188,-207.5 327,-207.5 C327,-207.5 217.99899291992188,-207.5 217.99899291992188,-207.5 C66.23400115966797,-207.5 15.85200023651123,117.96199798583984 15.85200023651123,166.96400451660156 M23.780000686645508,166.96400451660156 C23.780000686645508,117.96499633789062 99.35299682617188,-207.5 327,-207.5 C327,-207.5 217.99899291992188,-207.5 217.99899291992188,-207.5 C66.23400115966797,-207.5 15.85200023651123,117.96199798583984 15.85200023651123,166.96400451660156 M7.926000118255615,166.96400451660156 C7.926000118255615,117.96499633789062 33.117000579833984,-207.5 109,-207.5 C109,-207.5 -0.0020000000949949026,-207.5 -0.0020000000949949026,-207.5 C-0.0020000000949949026,-207.5 -0.0020000000949949026,117.96199798583984 -0.0020000000949949026,166.96400451660156 M7.926000118255615,166.96400451660156 C7.926000118255615,117.96499633789062 33.117000579833984,-207.5 109,-207.5 C109,-207.5 -0.0020000000949949026,-207.5 -0.0020000000949949026,-207.5 C-0.0020000000949949026,-207.5 -0.0020000000949949026,117.96199798583984 -0.0020000000949949026,166.96400451660156 M-7.922999858856201,166.96400451660156 C-7.922999858856201,117.96499633789062 -33.11399841308594,-207.5 -108.99600219726562,-207.5 C-108.99600219726562,-207.5 -217.9980010986328,-207.5 -217.9980010986328,-207.5 C-66.23300170898438,-207.5 -15.85099983215332,117.96199798583984 -15.85099983215332,166.96400451660156 M-7.922999858856201,166.96400451660156 C-7.922999858856201,117.96499633789062 -33.11399841308594,-207.5 -108.99600219726562,-207.5 C-108.99600219726562,-207.5 -217.9980010986328,-207.5 -217.9980010986328,-207.5 C-66.23300170898438,-207.5 -15.85099983215332,117.96199798583984 -15.85099983215332,166.96400451660156"></path><path stroke-linecap="butt" stroke-linejoin="miter" fill-opacity="0" stroke-miterlimit="10" stroke="rgb(32,33,36)" stroke-opacity="1" stroke-width="2" d=" M7.926000118255615,166.96400451660156 C7.926000118255615,117.96499633789062 33.117000579833984,-207.5 108.9990005493164,-207.5 C108.9990005493164,-207.5 218.00100708007812,-207.5 218.00100708007812,-207.5 C66.23600006103516,-207.5 15.854000091552734,117.96199798583984 15.854000091552734,166.96400451660156 M0.0020000000949949026,166.96400451660156 C0.0020000000949949026,117.96499633789062 0.0020000000949949026,-207.5 0.0020000000949949026,-207.5 C0.0020000000949949026,-207.5 -109,-207.5 -109,-207.5 C-33.117000579833984,-207.5 -7.926000118255615,117.96199798583984 -7.926000118255615,166.96400451660156 M0.0020000000949949026,166.96400451660156 C0.0020000000949949026,117.96499633789062 0.0020000000949949026,-207.5 0.0020000000949949026,-207.5 C0.0020000000949949026,-207.5 -109,-207.5 -109,-207.5 C-33.117000579833984,-207.5 -7.926000118255615,117.96199798583984 -7.926000118255615,166.96400451660156 M-15.85099983215332,166.96400451660156 C-15.85099983215332,117.96499633789062 -66.23300170898438,-207.5 -217.9980010986328,-207.5 C-217.9980010986328,-207.5 -327,-207.5 -327,-207.5 C-99.35199737548828,-207.5 -23.780000686645508,117.96199798583984 -23.780000686645508,166.96400451660156 M-15.85099983215332,166.96400451660156 C-15.85099983215332,117.96499633789062 -66.23300170898438,-207.5 -217.9980010986328,-207.5 C-217.9980010986328,-207.5 -327,-207.5 -327,-207.5 C-99.35199737548828,-207.5 -23.780000686645508,117.96199798583984 -23.780000686645508,166.96400451660156 M23.780000686645508,166.96400451660156 C23.780000686645508,117.96499633789062 99.35299682617188,-207.5 327,-207.5 C327,-207.5 217.99899291992188,-207.5 217.99899291992188,-207.5 C66.23400115966797,-207.5 15.85200023651123,117.96199798583984 15.85200023651123,166.96400451660156 M23.780000686645508,166.96400451660156 C23.780000686645508,117.96499633789062 99.35299682617188,-207.5 327,-207.5 C327,-207.5 217.99899291992188,-207.5 217.99899291992188,-207.5 C66.23400115966797,-207.5 15.85200023651123,117.96199798583984 15.85200023651123,166.96400451660156 M7.926000118255615,166.96400451660156 C7.926000118255615,117.96499633789062 33.117000579833984,-207.5 109,-207.5 C109,-207.5 -0.0020000000949949026,-207.5 -0.0020000000949949026,-207.5 C-0.0020000000949949026,-207.5 -0.0020000000949949026,117.96199798583984 -0.0020000000949949026,166.96400451660156 M7.926000118255615,166.96400451660156 C7.926000118255615,117.96499633789062 33.117000579833984,-207.5 109,-207.5 C109,-207.5 -0.0020000000949949026,-207.5 -0.0020000000949949026,-207.5 C-0.0020000000949949026,-207.5 -0.0020000000949949026,117.96199798583984 -0.0020000000949949026,166.96400451660156 M-7.922999858856201,166.96400451660156 C-7.922999858856201,117.96499633789062 -33.11399841308594,-207.5 -108.99600219726562,-207.5 C-108.99600219726562,-207.5 -217.9980010986328,-207.5 -217.9980010986328,-207.5 C-66.23300170898438,-207.5 -15.85099983215332,117.96199798583984 -15.85099983215332,166.96400451660156 M-7.922999858856201,166.96400451660156 C-7.922999858856201,117.96499633789062 -33.11399841308594,-207.5 -108.99600219726562,-207.5 C-108.99600219726562,-207.5 -217.9980010986328,-207.5 -217.9980010986328,-207.5 C-66.23300170898438,-207.5 -15.85099983215332,117.96199798583984 -15.85099983215332,166.96400451660156"></path><path fill="rgb(56,168,82)" fill-opacity="1" d=" M0.0020000000949949026,166.96400451660156 C0.0020000000949949026,117.96499633789062 0.0020000000949949026,-207.5 0.0020000000949949026,-207.5 C0.0020000000949949026,-207.5 -109,-207.5 -109,-207.5 C-33.117000579833984,-207.5 -7.926000118255615,117.96199798583984 -7.926000118255615,166.96400451660156 M0.0020000000949949026,166.96400451660156 C0.0020000000949949026,117.96499633789062 0.0020000000949949026,-207.5 0.0020000000949949026,-207.5 C0.0020000000949949026,-207.5 -109,-207.5 -109,-207.5 C-33.117000579833984,-207.5 -7.926000118255615,117.96199798583984 -7.926000118255615,166.96400451660156 M-15.85099983215332,166.96400451660156 C-15.85099983215332,117.96499633789062 -66.23300170898438,-207.5 -217.9980010986328,-207.5 C-217.9980010986328,-207.5 -327,-207.5 -327,-207.5 C-99.35199737548828,-207.5 -23.780000686645508,117.96199798583984 -23.780000686645508,166.96400451660156 M-15.85099983215332,166.96400451660156 C-15.85099983215332,117.96499633789062 -66.23300170898438,-207.5 -217.9980010986328,-207.5 C-217.9980010986328,-207.5 -327,-207.5 -327,-207.5 C-99.35199737548828,-207.5 -23.780000686645508,117.96199798583984 -23.780000686645508,166.96400451660156 M23.780000686645508,166.96400451660156 C23.780000686645508,117.96499633789062 99.35299682617188,-207.5 327,-207.5 C327,-207.5 217.99899291992188,-207.5 217.99899291992188,-207.5 C66.23400115966797,-207.5 15.85200023651123,117.96199798583984 15.85200023651123,166.96400451660156 M23.780000686645508,166.96400451660156 C23.780000686645508,117.96499633789062 99.35299682617188,-207.5 327,-207.5 C327,-207.5 217.99899291992188,-207.5 217.99899291992188,-207.5 C66.23400115966797,-207.5 15.85200023651123,117.96199798583984 15.85200023651123,166.96400451660156 M7.926000118255615,166.96400451660156 C7.926000118255615,117.96499633789062 33.117000579833984,-207.5 109,-207.5 C109,-207.5 -0.0020000000949949026,-207.5 -0.0020000000949949026,-207.5 C-0.0020000000949949026,-207.5 -0.0020000000949949026,117.96199798583984 -0.0020000000949949026,166.96400451660156 M7.926000118255615,166.96400451660156 C7.926000118255615,117.96499633789062 33.117000579833984,-207.5 109,-207.5 C109,-207.5 -0.0020000000949949026,-207.5 -0.0020000000949949026,-207.5 C-0.0020000000949949026,-207.5 -0.0020000000949949026,117.96199798583984 -0.0020000000949949026,166.96400451660156 M-7.922999858856201,166.96400451660156 C-7.922999858856201,117.96499633789062 -33.11399841308594,-207.5 -108.99600219726562,-207.5 C-108.99600219726562,-207.5 -217.9980010986328,-207.5 -217.9980010986328,-207.5 C-66.23300170898438,-207.5 -15.85099983215332,117.96199798583984 -15.85099983215332,166.96400451660156 M-7.922999858856201,166.96400451660156 C-7.922999858856201,117.96499633789062 -33.11399841308594,-207.5 -108.99600219726562,-207.5 C-108.99600219726562,-207.5 -217.9980010986328,-207.5 -217.9980010986328,-207.5 C-66.23300170898438,-207.5 -15.85099983215332,117.96199798583984 -15.85099983215332,166.96400451660156"></path><path stroke-linecap="round" stroke-linejoin="round" fill-opacity="0" stroke="rgb(32,33,36)" stroke-opacity="1" stroke-width="2" d=" M0.0020000000949949026,166.96400451660156 C0.0020000000949949026,117.96499633789062 0.0020000000949949026,-207.5 0.0020000000949949026,-207.5 C0.0020000000949949026,-207.5 -109,-207.5 -109,-207.5 C-33.117000579833984,-207.5 -7.926000118255615,117.96199798583984 -7.926000118255615,166.96400451660156 M-15.85099983215332,166.96400451660156 C-15.85099983215332,117.96499633789062 -66.23300170898438,-207.5 -217.9980010986328,-207.5 C-217.9980010986328,-207.5 -327,-207.5 -327,-207.5 C-99.35199737548828,-207.5 -23.780000686645508,117.96199798583984 -23.780000686645508,166.96400451660156 M-15.85099983215332,166.96400451660156 C-15.85099983215332,117.96499633789062 -66.23300170898438,-207.5 -217.9980010986328,-207.5 C-217.9980010986328,-207.5 -327,-207.5 -327,-207.5 C-99.35199737548828,-207.5 -23.780000686645508,117.96199798583984 -23.780000686645508,166.96400451660156 M23.780000686645508,166.96400451660156 C23.780000686645508,117.96499633789062 99.35299682617188,-207.5 327,-207.5 C327,-207.5 217.99899291992188,-207.5 217.99899291992188,-207.5 C66.23400115966797,-207.5 15.85200023651123,117.96199798583984 15.85200023651123,166.96400451660156 M23.780000686645508,166.96400451660156 C23.780000686645508,117.96499633789062 99.35299682617188,-207.5 327,-207.5 C327,-207.5 217.99899291992188,-207.5 217.99899291992188,-207.5 C66.23400115966797,-207.5 15.85200023651123,117.96199798583984 15.85200023651123,166.96400451660156 M7.926000118255615,166.96400451660156 C7.926000118255615,117.96499633789062 33.117000579833984,-207.5 109,-207.5 C109,-207.5 -0.0020000000949949026,-207.5 -0.0020000000949949026,-207.5 C-0.0020000000949949026,-207.5 -0.0020000000949949026,117.96199798583984 -0.0020000000949949026,166.96400451660156 M7.926000118255615,166.96400451660156 C7.926000118255615,117.96499633789062 33.117000579833984,-207.5 109,-207.5 C109,-207.5 -0.0020000000949949026,-207.5 -0.0020000000949949026,-207.5 C-0.0020000000949949026,-207.5 -0.0020000000949949026,117.96199798583984 -0.0020000000949949026,166.96400451660156 M-7.922999858856201,166.96400451660156 C-7.922999858856201,117.96499633789062 -33.11399841308594,-207.5 -108.99600219726562,-207.5 C-108.99600219726562,-207.5 -217.9980010986328,-207.5 -217.9980010986328,-207.5 C-66.23300170898438,-207.5 -15.85099983215332,117.96199798583984 -15.85099983215332,166.96400451660156 M-7.922999858856201,166.96400451660156 C-7.922999858856201,117.96499633789062 -33.11399841308594,-207.5 -108.99600219726562,-207.5 C-108.99600219726562,-207.5 -217.9980010986328,-207.5 -217.9980010986328,-207.5 C-66.23300170898438,-207.5 -15.85099983215332,117.96199798583984 -15.85099983215332,166.96400451660156"></path><path fill="rgb(66,142,255)" fill-opacity="1" d=" M-15.85099983215332,166.96400451660156 C-15.85099983215332,117.96499633789062 -66.23300170898438,-207.5 -217.9980010986328,-207.5 C-217.9980010986328,-207.5 -327,-207.5 -327,-207.5 C-99.35199737548828,-207.5 -23.780000686645508,117.96199798583984 -23.780000686645508,166.96400451660156 M-15.85099983215332,166.96400451660156 C-15.85099983215332,117.96499633789062 -66.23300170898438,-207.5 -217.9980010986328,-207.5 C-217.9980010986328,-207.5 -327,-207.5 -327,-207.5 C-99.35199737548828,-207.5 -23.780000686645508,117.96199798583984 -23.780000686645508,166.96400451660156 M23.780000686645508,166.96400451660156 C23.780000686645508,117.96499633789062 99.35299682617188,-207.5 327,-207.5 C327,-207.5 217.99899291992188,-207.5 217.99899291992188,-207.5 C66.23400115966797,-207.5 15.85200023651123,117.96199798583984 15.85200023651123,166.96400451660156 M23.780000686645508,166.96400451660156 C23.780000686645508,117.96499633789062 99.35299682617188,-207.5 327,-207.5 C327,-207.5 217.99899291992188,-207.5 217.99899291992188,-207.5 C66.23400115966797,-207.5 15.85200023651123,117.96199798583984 15.85200023651123,166.96400451660156 M7.926000118255615,166.96400451660156 C7.926000118255615,117.96499633789062 33.117000579833984,-207.5 109,-207.5 C109,-207.5 -0.0020000000949949026,-207.5 -0.0020000000949949026,-207.5 C-0.0020000000949949026,-207.5 -0.0020000000949949026,117.96199798583984 -0.0020000000949949026,166.96400451660156 M7.926000118255615,166.96400451660156 C7.926000118255615,117.96499633789062 33.117000579833984,-207.5 109,-207.5 C109,-207.5 -0.0020000000949949026,-207.5 -0.0020000000949949026,-207.5 C-0.0020000000949949026,-207.5 -0.0020000000949949026,117.96199798583984 -0.0020000000949949026,166.96400451660156 M-7.922999858856201,166.96400451660156 C-7.922999858856201,117.96499633789062 -33.11399841308594,-207.5 -108.99600219726562,-207.5 C-108.99600219726562,-207.5 -217.9980010986328,-207.5 -217.9980010986328,-207.5 C-66.23300170898438,-207.5 -15.85099983215332,117.96199798583984 -15.85099983215332,166.96400451660156 M-7.922999858856201,166.96400451660156 C-7.922999858856201,117.96499633789062 -33.11399841308594,-207.5 -108.99600219726562,-207.5 C-108.99600219726562,-207.5 -217.9980010986328,-207.5 -217.9980010986328,-207.5 C-66.23300170898438,-207.5 -15.85099983215332,117.96199798583984 -15.85099983215332,166.96400451660156"></path><path stroke-linecap="round" stroke-linejoin="round" fill-opacity="0" stroke="rgb(32,33,36)" stroke-opacity="1" stroke-width="2" d=" M-15.85099983215332,166.96400451660156 C-15.85099983215332,117.96499633789062 -66.23300170898438,-207.5 -217.9980010986328,-207.5 C-217.9980010986328,-207.5 -327,-207.5 -327,-207.5 C-99.35199737548828,-207.5 -23.780000686645508,117.96199798583984 -23.780000686645508,166.96400451660156 M23.780000686645508,166.96400451660156 C23.780000686645508,117.96499633789062 99.35299682617188,-207.5 327,-207.5 C327,-207.5 217.99899291992188,-207.5 217.99899291992188,-207.5 C66.23400115966797,-207.5 15.85200023651123,117.96199798583984 15.85200023651123,166.96400451660156 M23.780000686645508,166.96400451660156 C23.780000686645508,117.96499633789062 99.35299682617188,-207.5 327,-207.5 C327,-207.5 217.99899291992188,-207.5 217.99899291992188,-207.5 C66.23400115966797,-207.5 15.85200023651123,117.96199798583984 15.85200023651123,166.96400451660156 M7.926000118255615,166.96400451660156 C7.926000118255615,117.96499633789062 33.117000579833984,-207.5 109,-207.5 C109,-207.5 -0.0020000000949949026,-207.5 -0.0020000000949949026,-207.5 C-0.0020000000949949026,-207.5 -0.0020000000949949026,117.96199798583984 -0.0020000000949949026,166.96400451660156 M7.926000118255615,166.96400451660156 C7.926000118255615,117.96499633789062 33.117000579833984,-207.5 109,-207.5 C109,-207.5 -0.0020000000949949026,-207.5 -0.0020000000949949026,-207.5 C-0.0020000000949949026,-207.5 -0.0020000000949949026,117.96199798583984 -0.0020000000949949026,166.96400451660156 M-7.922999858856201,166.96400451660156 C-7.922999858856201,117.96499633789062 -33.11399841308594,-207.5 -108.99600219726562,-207.5 C-108.99600219726562,-207.5 -217.9980010986328,-207.5 -217.9980010986328,-207.5 C-66.23300170898438,-207.5 -15.85099983215332,117.96199798583984 -15.85099983215332,166.96400451660156 M-7.922999858856201,166.96400451660156 C-7.922999858856201,117.96499633789062 -33.11399841308594,-207.5 -108.99600219726562,-207.5 C-108.99600219726562,-207.5 -217.9980010986328,-207.5 -217.9980010986328,-207.5 C-66.23300170898438,-207.5 -15.85099983215332,117.96199798583984 -15.85099983215332,166.96400451660156"></path><path fill="rgb(218,220,224)" fill-opacity="1" d=" M23.780000686645508,166.96400451660156 C23.780000686645508,117.96499633789062 99.35299682617188,-207.5 327,-207.5 C327,-207.5 217.99899291992188,-207.5 217.99899291992188,-207.5 C66.23400115966797,-207.5 15.85200023651123,117.96199798583984 15.85200023651123,166.96400451660156 M23.780000686645508,166.96400451660156 C23.780000686645508,117.96499633789062 99.35299682617188,-207.5 327,-207.5 C327,-207.5 217.99899291992188,-207.5 217.99899291992188,-207.5 C66.23400115966797,-207.5 15.85200023651123,117.96199798583984 15.85200023651123,166.96400451660156 M7.926000118255615,166.96400451660156 C7.926000118255615,117.96499633789062 33.117000579833984,-207.5 109,-207.5 C109,-207.5 -0.0020000000949949026,-207.5 -0.0020000000949949026,-207.5 C-0.0020000000949949026,-207.5 -0.0020000000949949026,117.96199798583984 -0.0020000000949949026,166.96400451660156 M7.926000118255615,166.96400451660156 C7.926000118255615,117.96499633789062 33.117000579833984,-207.5 109,-207.5 C109,-207.5 -0.0020000000949949026,-207.5 -0.0020000000949949026,-207.5 C-0.0020000000949949026,-207.5 -0.0020000000949949026,117.96199798583984 -0.0020000000949949026,166.96400451660156 M-7.922999858856201,166.96400451660156 C-7.922999858856201,117.96499633789062 -33.11399841308594,-207.5 -108.99600219726562,-207.5 C-108.99600219726562,-207.5 -217.9980010986328,-207.5 -217.9980010986328,-207.5 C-66.23300170898438,-207.5 -15.85099983215332,117.96199798583984 -15.85099983215332,166.96400451660156 M-7.922999858856201,166.96400451660156 C-7.922999858856201,117.96499633789062 -33.11399841308594,-207.5 -108.99600219726562,-207.5 C-108.99600219726562,-207.5 -217.9980010986328,-207.5 -217.9980010986328,-207.5 C-66.23300170898438,-207.5 -15.85099983215332,117.96199798583984 -15.85099983215332,166.96400451660156"></path><path stroke-linecap="round" stroke-linejoin="round" fill-opacity="0" stroke="rgb(32,33,36)" stroke-opacity="1" stroke-width="2" d=" M23.780000686645508,166.96400451660156 C23.780000686645508,117.96499633789062 99.35299682617188,-207.5 327,-207.5 C327,-207.5 217.99899291992188,-207.5 217.99899291992188,-207.5 C66.23400115966797,-207.5 15.85200023651123,117.96199798583984 15.85200023651123,166.96400451660156 M7.926000118255615,166.96400451660156 C7.926000118255615,117.96499633789062 33.117000579833984,-207.5 109,-207.5 C109,-207.5 -0.0020000000949949026,-207.5 -0.0020000000949949026,-207.5 C-0.0020000000949949026,-207.5 -0.0020000000949949026,117.96199798583984 -0.0020000000949949026,166.96400451660156 M7.926000118255615,166.96400451660156 C7.926000118255615,117.96499633789062 33.117000579833984,-207.5 109,-207.5 C109,-207.5 -0.0020000000949949026,-207.5 -0.0020000000949949026,-207.5 C-0.0020000000949949026,-207.5 -0.0020000000949949026,117.96199798583984 -0.0020000000949949026,166.96400451660156 M-7.922999858856201,166.96400451660156 C-7.922999858856201,117.96499633789062 -33.11399841308594,-207.5 -108.99600219726562,-207.5 C-108.99600219726562,-207.5 -217.9980010986328,-207.5 -217.9980010986328,-207.5 C-66.23300170898438,-207.5 -15.85099983215332,117.96199798583984 -15.85099983215332,166.96400451660156 M-7.922999858856201,166.96400451660156 C-7.922999858856201,117.96499633789062 -33.11399841308594,-207.5 -108.99600219726562,-207.5 C-108.99600219726562,-207.5 -217.9980010986328,-207.5 -217.9980010986328,-207.5 C-66.23300170898438,-207.5 -15.85099983215332,117.96199798583984 -15.85099983215332,166.96400451660156"></path><path fill="rgb(255,187,1)" fill-opacity="1" d=" M7.926000118255615,166.96400451660156 C7.926000118255615,117.96499633789062 33.117000579833984,-207.5 109,-207.5 C109,-207.5 -0.0020000000949949026,-207.5 -0.0020000000949949026,-207.5 C-0.0020000000949949026,-207.5 -0.0020000000949949026,117.96199798583984 -0.0020000000949949026,166.96400451660156 M7.926000118255615,166.96400451660156 C7.926000118255615,117.96499633789062 33.117000579833984,-207.5 109,-207.5 C109,-207.5 -0.0020000000949949026,-207.5 -0.0020000000949949026,-207.5 C-0.0020000000949949026,-207.5 -0.0020000000949949026,117.96199798583984 -0.0020000000949949026,166.96400451660156 M-7.922999858856201,166.96400451660156 C-7.922999858856201,117.96499633789062 -33.11399841308594,-207.5 -108.99600219726562,-207.5 C-108.99600219726562,-207.5 -217.9980010986328,-207.5 -217.9980010986328,-207.5 C-66.23300170898438,-207.5 -15.85099983215332,117.96199798583984 -15.85099983215332,166.96400451660156 M-7.922999858856201,166.96400451660156 C-7.922999858856201,117.96499633789062 -33.11399841308594,-207.5 -108.99600219726562,-207.5 C-108.99600219726562,-207.5 -217.9980010986328,-207.5 -217.9980010986328,-207.5 C-66.23300170898438,-207.5 -15.85099983215332,117.96199798583984 -15.85099983215332,166.96400451660156"></path><path stroke-linecap="round" stroke-linejoin="round" fill-opacity="0" stroke="rgb(32,33,36)" stroke-opacity="1" stroke-width="2" d=" M7.926000118255615,166.96400451660156 C7.926000118255615,117.96499633789062 33.117000579833984,-207.5 109,-207.5 C109,-207.5 -0.0020000000949949026,-207.5 -0.0020000000949949026,-207.5 C-0.0020000000949949026,-207.5 -0.0020000000949949026,117.96199798583984 -0.0020000000949949026,166.96400451660156 M-7.922999858856201,166.96400451660156 C-7.922999858856201,117.96499633789062 -33.11399841308594,-207.5 -108.99600219726562,-207.5 C-108.99600219726562,-207.5 -217.9980010986328,-207.5 -217.9980010986328,-207.5 C-66.23300170898438,-207.5 -15.85099983215332,117.96199798583984 -15.85099983215332,166.96400451660156 M-7.922999858856201,166.96400451660156 C-7.922999858856201,117.96499633789062 -33.11399841308594,-207.5 -108.99600219726562,-207.5 C-108.99600219726562,-207.5 -217.9980010986328,-207.5 -217.9980010986328,-207.5 C-66.23300170898438,-207.5 -15.85099983215332,117.96199798583984 -15.85099983215332,166.96400451660156"></path><path fill="rgb(255,81,69)" fill-opacity="1" d=" M-7.922999858856201,166.96400451660156 C-7.922999858856201,117.96499633789062 -33.11399841308594,-207.5 -108.99600219726562,-207.5 C-108.99600219726562,-207.5 -217.9980010986328,-207.5 -217.9980010986328,-207.5 C-66.23300170898438,-207.5 -15.85099983215332,117.96199798583984 -15.85099983215332,166.96400451660156 M-7.922999858856201,166.96400451660156 C-7.922999858856201,117.96499633789062 -33.11399841308594,-207.5 -108.99600219726562,-207.5 C-108.99600219726562,-207.5 -217.9980010986328,-207.5 -217.9980010986328,-207.5 C-66.23300170898438,-207.5 -15.85099983215332,117.96199798583984 -15.85099983215332,166.96400451660156"></path><path stroke-linecap="round" stroke-linejoin="round" fill-opacity="0" stroke="rgb(32,33,36)" stroke-opacity="1" stroke-width="2" d=" M-7.922999858856201,166.96400451660156 C-7.922999858856201,117.96499633789062 -33.11399841308594,-207.5 -108.99600219726562,-207.5 C-108.99600219726562,-207.5 -217.9980010986328,-207.5 -217.9980010986328,-207.5 C-66.23300170898438,-207.5 -15.85099983215332,117.96199798583984 -15.85099983215332,166.96400451660156"></path></g><g clip-path="url(#__lottie_element_5)" transform="matrix(1.2051299810409546,0,0,1.2051299810409546,350,237.64686584472656)" opacity="1" style="display: block;"><path fill="rgb(32,33,36)" fill-opacity="1" d=" M-14.456999778747559,137.8159942626953 C-20.732999801635742,138.1219940185547 -31.711999893188477,153.47900390625 -51.16699981689453,207.9739990234375 C-51.16699981689453,207.9739990234375 -102.33599853515625,207.9739990234375 -102.33599853515625,207.9739990234375 C-62.303001403808594,151.91299438476562 -40.17300033569336,137.23399353027344 -27.79599952697754,137.82699584960938 C-27.79599952697754,137.82699584960938 -14.45300006866455,137.8159942626953 -14.45300006866455,137.8159942626953 C-14.45300006866455,137.8159942626953 -14.456999778747559,137.8159942626953 -14.456999778747559,137.8159942626953z M-153.50399780273438,207.9739990234375 C-94.64900207519531,153.0279998779297 -61.641998291015625,137.85699462890625 -42.88399887084961,137.81199645996094 C-42.88399887084961,137.81199645996094 -27.798999786376953,137.83099365234375 -27.798999786376953,137.83099365234375 C-40.17599868774414,137.23800659179688 -62.305999755859375,151.91299438476562 -102.33899688720703,207.97799682617188 C-102.33899688720703,207.97799682617188 -153.50799560546875,207.97799682617188 -153.50799560546875,207.97799682617188 C-153.50799560546875,207.97799682617188 -153.50399780273438,207.9739990234375 -153.50399780273438,207.9739990234375z M0.003000000026077032,137.82699584960938 C0.003000000026077032,137.82699584960938 0.003000000026077032,208.2429962158203 0.003000000026077032,208.2429962158203 C0.003000000026077032,208.2429962158203 -51.16600036621094,207.9739990234375 -51.16600036621094,207.9739990234375 C-31.150999069213867,151.91299438476562 -20.08300018310547,137.23399353027344 -13.895999908447266,137.82699584960938 C-13.895999908447266,137.82699584960938 0.003000000026077032,137.82699584960938 0.003000000026077032,137.82699584960938 C0.003000000026077032,137.82699584960938 0.003000000026077032,137.82699584960938 0.003000000026077032,137.82699584960938z M14.461000442504883,137.8159942626953 C20.73699951171875,138.1219940185547 31.715999603271484,153.47900390625 51.17100143432617,207.9739990234375 C51.17100143432617,207.9739990234375 102.33999633789062,207.9739990234375 102.33999633789062,207.9739990234375 C62.30699920654297,151.91299438476562 40.178001403808594,137.23399353027344 27.799999237060547,137.82699584960938 C27.799999237060547,137.82699584960938 14.456999778747559,137.8159942626953 14.456999778747559,137.8159942626953 C14.456999778747559,137.8159942626953 14.461000442504883,137.8159942626953 14.461000442504883,137.8159942626953z M153.50799560546875,207.9739990234375 C94.65299987792969,153.0279998779297 61.645999908447266,137.85699462890625 42.887001037597656,137.81199645996094 C42.887001037597656,137.81199645996094 27.80299949645996,137.83099365234375 27.80299949645996,137.83099365234375 C40.18000030517578,137.23800659179688 62.308998107910156,151.91299438476562 102.34300231933594,207.97799682617188 C102.34300231933594,207.97799682617188 153.51199340820312,207.97799682617188 153.51199340820312,207.97799682617188 C153.51199340820312,207.97799682617188 153.50799560546875,207.9739990234375 153.50799560546875,207.9739990234375z M0.0020000000949949026,137.82699584960938 C0.0020000000949949026,137.82699584960938 0.0020000000949949026,208.2429962158203 0.0020000000949949026,208.2429962158203 C0.0020000000949949026,208.2429962158203 51.17100143432617,207.9739990234375 51.17100143432617,207.9739990234375 C31.1560001373291,151.91299438476562 20.08799934387207,137.23399353027344 13.901000022888184,137.82699584960938 C13.901000022888184,137.82699584960938 0.0020000000949949026,137.82699584960938 0.0020000000949949026,137.82699584960938 C0.0020000000949949026,137.82699584960938 0.0020000000949949026,137.82699584960938 0.0020000000949949026,137.82699584960938z"></path><path stroke-linecap="butt" stroke-linejoin="miter" fill-opacity="0" stroke-miterlimit="10" stroke="rgb(32,33,36)" stroke-opacity="1" stroke-width="2" d=" M-14.456999778747559,137.8159942626953 C-20.732999801635742,138.1219940185547 -31.711999893188477,153.47900390625 -51.16699981689453,207.9739990234375 C-51.16699981689453,207.9739990234375 -102.33599853515625,207.9739990234375 -102.33599853515625,207.9739990234375 C-62.303001403808594,151.91299438476562 -40.17300033569336,137.23399353027344 -27.79599952697754,137.82699584960938 C-27.79599952697754,137.82699584960938 -14.45300006866455,137.8159942626953 -14.45300006866455,137.8159942626953 C-14.45300006866455,137.8159942626953 -14.456999778747559,137.8159942626953 -14.456999778747559,137.8159942626953z M-153.50399780273438,207.9739990234375 C-94.64900207519531,153.0279998779297 -61.641998291015625,137.85699462890625 -42.88399887084961,137.81199645996094 C-42.88399887084961,137.81199645996094 -27.798999786376953,137.83099365234375 -27.798999786376953,137.83099365234375 C-40.17599868774414,137.23800659179688 -62.305999755859375,151.91299438476562 -102.33899688720703,207.97799682617188 C-102.33899688720703,207.97799682617188 -153.50799560546875,207.97799682617188 -153.50799560546875,207.97799682617188 C-153.50799560546875,207.97799682617188 -153.50399780273438,207.9739990234375 -153.50399780273438,207.9739990234375z M0.003000000026077032,137.82699584960938 C0.003000000026077032,137.82699584960938 0.003000000026077032,208.2429962158203 0.003000000026077032,208.2429962158203 C0.003000000026077032,208.2429962158203 -51.16600036621094,207.9739990234375 -51.16600036621094,207.9739990234375 C-31.150999069213867,151.91299438476562 -20.08300018310547,137.23399353027344 -13.895999908447266,137.82699584960938 C-13.895999908447266,137.82699584960938 0.003000000026077032,137.82699584960938 0.003000000026077032,137.82699584960938 C0.003000000026077032,137.82699584960938 0.003000000026077032,137.82699584960938 0.003000000026077032,137.82699584960938z M14.461000442504883,137.8159942626953 C20.73699951171875,138.1219940185547 31.715999603271484,153.47900390625 51.17100143432617,207.9739990234375 C51.17100143432617,207.9739990234375 102.33999633789062,207.9739990234375 102.33999633789062,207.9739990234375 C62.30699920654297,151.91299438476562 40.178001403808594,137.23399353027344 27.799999237060547,137.82699584960938 C27.799999237060547,137.82699584960938 14.456999778747559,137.8159942626953 14.456999778747559,137.8159942626953 C14.456999778747559,137.8159942626953 14.461000442504883,137.8159942626953 14.461000442504883,137.8159942626953z M153.50799560546875,207.9739990234375 C94.65299987792969,153.0279998779297 61.645999908447266,137.85699462890625 42.887001037597656,137.81199645996094 C42.887001037597656,137.81199645996094 27.80299949645996,137.83099365234375 27.80299949645996,137.83099365234375 C40.18000030517578,137.23800659179688 62.308998107910156,151.91299438476562 102.34300231933594,207.97799682617188 C102.34300231933594,207.97799682617188 153.51199340820312,207.97799682617188 153.51199340820312,207.97799682617188 C153.51199340820312,207.97799682617188 153.50799560546875,207.9739990234375 153.50799560546875,207.9739990234375z M0.0020000000949949026,137.82699584960938 C0.0020000000949949026,137.82699584960938 0.0020000000949949026,208.2429962158203 0.0020000000949949026,208.2429962158203 C0.0020000000949949026,208.2429962158203 51.17100143432617,207.9739990234375 51.17100143432617,207.9739990234375 C31.1560001373291,151.91299438476562 20.08799934387207,137.23399353027344 13.901000022888184,137.82699584960938 C13.901000022888184,137.82699584960938 0.0020000000949949026,137.82699584960938 0.0020000000949949026,137.82699584960938 C0.0020000000949949026,137.82699584960938 0.0020000000949949026,137.82699584960938 0.0020000000949949026,137.82699584960938z"></path><path fill="rgb(218,220,224)" fill-opacity="1" d=" M-153.50399780273438,207.9739990234375 C-94.64900207519531,153.0279998779297 -61.641998291015625,137.85699462890625 -42.88399887084961,137.81199645996094 C-42.88399887084961,137.81199645996094 -27.798999786376953,137.83099365234375 -27.798999786376953,137.83099365234375 C-40.17599868774414,137.23800659179688 -62.305999755859375,151.91299438476562 -102.33899688720703,207.97799682617188 C-102.33899688720703,207.97799682617188 -153.50799560546875,207.97799682617188 -153.50799560546875,207.97799682617188 C-153.50799560546875,207.97799682617188 -153.50399780273438,207.9739990234375 -153.50399780273438,207.9739990234375z M0.003000000026077032,137.82699584960938 C0.003000000026077032,137.82699584960938 0.003000000026077032,208.2429962158203 0.003000000026077032,208.2429962158203 C0.003000000026077032,208.2429962158203 -51.16600036621094,207.9739990234375 -51.16600036621094,207.9739990234375 C-31.150999069213867,151.91299438476562 -20.08300018310547,137.23399353027344 -13.895999908447266,137.82699584960938 C-13.895999908447266,137.82699584960938 0.003000000026077032,137.82699584960938 0.003000000026077032,137.82699584960938 C0.003000000026077032,137.82699584960938 0.003000000026077032,137.82699584960938 0.003000000026077032,137.82699584960938z M14.461000442504883,137.8159942626953 C20.73699951171875,138.1219940185547 31.715999603271484,153.47900390625 51.17100143432617,207.9739990234375 C51.17100143432617,207.9739990234375 102.33999633789062,207.9739990234375 102.33999633789062,207.9739990234375 C62.30699920654297,151.91299438476562 40.178001403808594,137.23399353027344 27.799999237060547,137.82699584960938 C27.799999237060547,137.82699584960938 14.456999778747559,137.8159942626953 14.456999778747559,137.8159942626953 C14.456999778747559,137.8159942626953 14.461000442504883,137.8159942626953 14.461000442504883,137.8159942626953z M153.50799560546875,207.9739990234375 C94.65299987792969,153.0279998779297 61.645999908447266,137.85699462890625 42.887001037597656,137.81199645996094 C42.887001037597656,137.81199645996094 27.80299949645996,137.83099365234375 27.80299949645996,137.83099365234375 C40.18000030517578,137.23800659179688 62.308998107910156,151.91299438476562 102.34300231933594,207.97799682617188 C102.34300231933594,207.97799682617188 153.51199340820312,207.97799682617188 153.51199340820312,207.97799682617188 C153.51199340820312,207.97799682617188 153.50799560546875,207.9739990234375 153.50799560546875,207.9739990234375z M0.0020000000949949026,137.82699584960938 C0.0020000000949949026,137.82699584960938 0.0020000000949949026,208.2429962158203 0.0020000000949949026,208.2429962158203 C0.0020000000949949026,208.2429962158203 51.17100143432617,207.9739990234375 51.17100143432617,207.9739990234375 C31.1560001373291,151.91299438476562 20.08799934387207,137.23399353027344 13.901000022888184,137.82699584960938 C13.901000022888184,137.82699584960938 0.0020000000949949026,137.82699584960938 0.0020000000949949026,137.82699584960938 C0.0020000000949949026,137.82699584960938 0.0020000000949949026,137.82699584960938 0.0020000000949949026,137.82699584960938z"></path><path stroke-linecap="round" stroke-linejoin="round" fill-opacity="0" stroke="rgb(32,33,36)" stroke-opacity="1" stroke-width="2" d=" M-153.50399780273438,207.9739990234375 C-94.64900207519531,153.0279998779297 -61.641998291015625,137.85699462890625 -42.88399887084961,137.81199645996094 C-42.88399887084961,137.81199645996094 -27.798999786376953,137.83099365234375 -27.798999786376953,137.83099365234375 C-40.17599868774414,137.23800659179688 -62.305999755859375,151.91299438476562 -102.33899688720703,207.97799682617188 C-102.33899688720703,207.97799682617188 -153.50799560546875,207.97799682617188 -153.50799560546875,207.97799682617188 C-153.50799560546875,207.97799682617188 -153.50399780273438,207.9739990234375 -153.50399780273438,207.9739990234375z M0.003000000026077032,137.82699584960938 C0.003000000026077032,137.82699584960938 0.003000000026077032,208.2429962158203 0.003000000026077032,208.2429962158203 C0.003000000026077032,208.2429962158203 -51.16600036621094,207.9739990234375 -51.16600036621094,207.9739990234375 C-31.150999069213867,151.91299438476562 -20.08300018310547,137.23399353027344 -13.895999908447266,137.82699584960938 C-13.895999908447266,137.82699584960938 0.003000000026077032,137.82699584960938 0.003000000026077032,137.82699584960938 C0.003000000026077032,137.82699584960938 0.003000000026077032,137.82699584960938 0.003000000026077032,137.82699584960938z M14.461000442504883,137.8159942626953 C20.73699951171875,138.1219940185547 31.715999603271484,153.47900390625 51.17100143432617,207.9739990234375 C51.17100143432617,207.9739990234375 102.33999633789062,207.9739990234375 102.33999633789062,207.9739990234375 C62.30699920654297,151.91299438476562 40.178001403808594,137.23399353027344 27.799999237060547,137.82699584960938 C27.799999237060547,137.82699584960938 14.456999778747559,137.8159942626953 14.456999778747559,137.8159942626953 C14.456999778747559,137.8159942626953 14.461000442504883,137.8159942626953 14.461000442504883,137.8159942626953z M153.50799560546875,207.9739990234375 C94.65299987792969,153.0279998779297 61.645999908447266,137.85699462890625 42.887001037597656,137.81199645996094 C42.887001037597656,137.81199645996094 27.80299949645996,137.83099365234375 27.80299949645996,137.83099365234375 C40.18000030517578,137.23800659179688 62.308998107910156,151.91299438476562 102.34300231933594,207.97799682617188 C102.34300231933594,207.97799682617188 153.51199340820312,207.97799682617188 153.51199340820312,207.97799682617188 C153.51199340820312,207.97799682617188 153.50799560546875,207.9739990234375 153.50799560546875,207.9739990234375z M0.0020000000949949026,137.82699584960938 C0.0020000000949949026,137.82699584960938 0.0020000000949949026,208.2429962158203 0.0020000000949949026,208.2429962158203 C0.0020000000949949026,208.2429962158203 51.17100143432617,207.9739990234375 51.17100143432617,207.9739990234375 C31.1560001373291,151.91299438476562 20.08799934387207,137.23399353027344 13.901000022888184,137.82699584960938 C13.901000022888184,137.82699584960938 0.0020000000949949026,137.82699584960938 0.0020000000949949026,137.82699584960938 C0.0020000000949949026,137.82699584960938 0.0020000000949949026,137.82699584960938 0.0020000000949949026,137.82699584960938z"></path><path fill="rgb(255,187,1)" fill-opacity="1" d=" M0.003000000026077032,137.82699584960938 C0.003000000026077032,137.82699584960938 0.003000000026077032,208.2429962158203 0.003000000026077032,208.2429962158203 C0.003000000026077032,208.2429962158203 -51.16600036621094,207.9739990234375 -51.16600036621094,207.9739990234375 C-31.150999069213867,151.91299438476562 -20.08300018310547,137.23399353027344 -13.895999908447266,137.82699584960938 C-13.895999908447266,137.82699584960938 0.003000000026077032,137.82699584960938 0.003000000026077032,137.82699584960938 C0.003000000026077032,137.82699584960938 0.003000000026077032,137.82699584960938 0.003000000026077032,137.82699584960938z M14.461000442504883,137.8159942626953 C20.73699951171875,138.1219940185547 31.715999603271484,153.47900390625 51.17100143432617,207.9739990234375 C51.17100143432617,207.9739990234375 102.33999633789062,207.9739990234375 102.33999633789062,207.9739990234375 C62.30699920654297,151.91299438476562 40.178001403808594,137.23399353027344 27.799999237060547,137.82699584960938 C27.799999237060547,137.82699584960938 14.456999778747559,137.8159942626953 14.456999778747559,137.8159942626953 C14.456999778747559,137.8159942626953 14.461000442504883,137.8159942626953 14.461000442504883,137.8159942626953z M153.50799560546875,207.9739990234375 C94.65299987792969,153.0279998779297 61.645999908447266,137.85699462890625 42.887001037597656,137.81199645996094 C42.887001037597656,137.81199645996094 27.80299949645996,137.83099365234375 27.80299949645996,137.83099365234375 C40.18000030517578,137.23800659179688 62.308998107910156,151.91299438476562 102.34300231933594,207.97799682617188 C102.34300231933594,207.97799682617188 153.51199340820312,207.97799682617188 153.51199340820312,207.97799682617188 C153.51199340820312,207.97799682617188 153.50799560546875,207.9739990234375 153.50799560546875,207.9739990234375z M0.0020000000949949026,137.82699584960938 C0.0020000000949949026,137.82699584960938 0.0020000000949949026,208.2429962158203 0.0020000000949949026,208.2429962158203 C0.0020000000949949026,208.2429962158203 51.17100143432617,207.9739990234375 51.17100143432617,207.9739990234375 C31.1560001373291,151.91299438476562 20.08799934387207,137.23399353027344 13.901000022888184,137.82699584960938 C13.901000022888184,137.82699584960938 0.0020000000949949026,137.82699584960938 0.0020000000949949026,137.82699584960938 C0.0020000000949949026,137.82699584960938 0.0020000000949949026,137.82699584960938 0.0020000000949949026,137.82699584960938z"></path><path stroke-linecap="round" stroke-linejoin="round" fill-opacity="0" stroke="rgb(32,33,36)" stroke-opacity="1" stroke-width="2" d=" M0.003000000026077032,137.82699584960938 C0.003000000026077032,137.82699584960938 0.003000000026077032,208.2429962158203 0.003000000026077032,208.2429962158203 C0.003000000026077032,208.2429962158203 -51.16600036621094,207.9739990234375 -51.16600036621094,207.9739990234375 C-31.150999069213867,151.91299438476562 -20.08300018310547,137.23399353027344 -13.895999908447266,137.82699584960938 C-13.895999908447266,137.82699584960938 0.003000000026077032,137.82699584960938 0.003000000026077032,137.82699584960938 C0.003000000026077032,137.82699584960938 0.003000000026077032,137.82699584960938 0.003000000026077032,137.82699584960938z M14.461000442504883,137.8159942626953 C20.73699951171875,138.1219940185547 31.715999603271484,153.47900390625 51.17100143432617,207.9739990234375 C51.17100143432617,207.9739990234375 102.33999633789062,207.9739990234375 102.33999633789062,207.9739990234375 C62.30699920654297,151.91299438476562 40.178001403808594,137.23399353027344 27.799999237060547,137.82699584960938 C27.799999237060547,137.82699584960938 14.456999778747559,137.8159942626953 14.456999778747559,137.8159942626953 C14.456999778747559,137.8159942626953 14.461000442504883,137.8159942626953 14.461000442504883,137.8159942626953z M153.50799560546875,207.9739990234375 C94.65299987792969,153.0279998779297 61.645999908447266,137.85699462890625 42.887001037597656,137.81199645996094 C42.887001037597656,137.81199645996094 27.80299949645996,137.83099365234375 27.80299949645996,137.83099365234375 C40.18000030517578,137.23800659179688 62.308998107910156,151.91299438476562 102.34300231933594,207.97799682617188 C102.34300231933594,207.97799682617188 153.51199340820312,207.97799682617188 153.51199340820312,207.97799682617188 C153.51199340820312,207.97799682617188 153.50799560546875,207.9739990234375 153.50799560546875,207.9739990234375z M0.0020000000949949026,137.82699584960938 C0.0020000000949949026,137.82699584960938 0.0020000000949949026,208.2429962158203 0.0020000000949949026,208.2429962158203 C0.0020000000949949026,208.2429962158203 51.17100143432617,207.9739990234375 51.17100143432617,207.9739990234375 C31.1560001373291,151.91299438476562 20.08799934387207,137.23399353027344 13.901000022888184,137.82699584960938 C13.901000022888184,137.82699584960938 0.0020000000949949026,137.82699584960938 0.0020000000949949026,137.82699584960938 C0.0020000000949949026,137.82699584960938 0.0020000000949949026,137.82699584960938 0.0020000000949949026,137.82699584960938z"></path><path fill="rgb(255,81,69)" fill-opacity="1" d=" M14.461000442504883,137.8159942626953 C20.73699951171875,138.1219940185547 31.715999603271484,153.47900390625 51.17100143432617,207.9739990234375 C51.17100143432617,207.9739990234375 102.33999633789062,207.9739990234375 102.33999633789062,207.9739990234375 C62.30699920654297,151.91299438476562 40.178001403808594,137.23399353027344 27.799999237060547,137.82699584960938 C27.799999237060547,137.82699584960938 14.456999778747559,137.8159942626953 14.456999778747559,137.8159942626953 C14.456999778747559,137.8159942626953 14.461000442504883,137.8159942626953 14.461000442504883,137.8159942626953z M153.50799560546875,207.9739990234375 C94.65299987792969,153.0279998779297 61.645999908447266,137.85699462890625 42.887001037597656,137.81199645996094 C42.887001037597656,137.81199645996094 27.80299949645996,137.83099365234375 27.80299949645996,137.83099365234375 C40.18000030517578,137.23800659179688 62.308998107910156,151.91299438476562 102.34300231933594,207.97799682617188 C102.34300231933594,207.97799682617188 153.51199340820312,207.97799682617188 153.51199340820312,207.97799682617188 C153.51199340820312,207.97799682617188 153.50799560546875,207.9739990234375 153.50799560546875,207.9739990234375z M0.0020000000949949026,137.82699584960938 C0.0020000000949949026,137.82699584960938 0.0020000000949949026,208.2429962158203 0.0020000000949949026,208.2429962158203 C0.0020000000949949026,208.2429962158203 51.17100143432617,207.9739990234375 51.17100143432617,207.9739990234375 C31.1560001373291,151.91299438476562 20.08799934387207,137.23399353027344 13.901000022888184,137.82699584960938 C13.901000022888184,137.82699584960938 0.0020000000949949026,137.82699584960938 0.0020000000949949026,137.82699584960938 C0.0020000000949949026,137.82699584960938 0.0020000000949949026,137.82699584960938 0.0020000000949949026,137.82699584960938z"></path><path stroke-linecap="round" stroke-linejoin="round" fill-opacity="0" stroke="rgb(32,33,36)" stroke-opacity="1" stroke-width="2" d=" M14.461000442504883,137.8159942626953 C20.73699951171875,138.1219940185547 31.715999603271484,153.47900390625 51.17100143432617,207.9739990234375 C51.17100143432617,207.9739990234375 102.33999633789062,207.9739990234375 102.33999633789062,207.9739990234375 C62.30699920654297,151.91299438476562 40.178001403808594,137.23399353027344 27.799999237060547,137.82699584960938 C27.799999237060547,137.82699584960938 14.456999778747559,137.8159942626953 14.456999778747559,137.8159942626953 C14.456999778747559,137.8159942626953 14.461000442504883,137.8159942626953 14.461000442504883,137.8159942626953z M153.50799560546875,207.9739990234375 C94.65299987792969,153.0279998779297 61.645999908447266,137.85699462890625 42.887001037597656,137.81199645996094 C42.887001037597656,137.81199645996094 27.80299949645996,137.83099365234375 27.80299949645996,137.83099365234375 C40.18000030517578,137.23800659179688 62.308998107910156,151.91299438476562 102.34300231933594,207.97799682617188 C102.34300231933594,207.97799682617188 153.51199340820312,207.97799682617188 153.51199340820312,207.97799682617188 C153.51199340820312,207.97799682617188 153.50799560546875,207.9739990234375 153.50799560546875,207.9739990234375z M0.0020000000949949026,137.82699584960938 C0.0020000000949949026,137.82699584960938 0.0020000000949949026,208.2429962158203 0.0020000000949949026,208.2429962158203 C0.0020000000949949026,208.2429962158203 51.17100143432617,207.9739990234375 51.17100143432617,207.9739990234375 C31.1560001373291,151.91299438476562 20.08799934387207,137.23399353027344 13.901000022888184,137.82699584960938 C13.901000022888184,137.82699584960938 0.0020000000949949026,137.82699584960938 0.0020000000949949026,137.82699584960938 C0.0020000000949949026,137.82699584960938 0.0020000000949949026,137.82699584960938 0.0020000000949949026,137.82699584960938z"></path><path fill="rgb(66,142,255)" fill-opacity="1" d=" M153.50799560546875,207.9739990234375 C94.65299987792969,153.0279998779297 61.645999908447266,137.85699462890625 42.887001037597656,137.81199645996094 C42.887001037597656,137.81199645996094 27.80299949645996,137.83099365234375 27.80299949645996,137.83099365234375 C40.18000030517578,137.23800659179688 62.308998107910156,151.91299438476562 102.34300231933594,207.97799682617188 C102.34300231933594,207.97799682617188 153.51199340820312,207.97799682617188 153.51199340820312,207.97799682617188 C153.51199340820312,207.97799682617188 153.50799560546875,207.9739990234375 153.50799560546875,207.9739990234375z M0.0020000000949949026,137.82699584960938 C0.0020000000949949026,137.82699584960938 0.0020000000949949026,208.2429962158203 0.0020000000949949026,208.2429962158203 C0.0020000000949949026,208.2429962158203 51.17100143432617,207.9739990234375 51.17100143432617,207.9739990234375 C31.1560001373291,151.91299438476562 20.08799934387207,137.23399353027344 13.901000022888184,137.82699584960938 C13.901000022888184,137.82699584960938 0.0020000000949949026,137.82699584960938 0.0020000000949949026,137.82699584960938 C0.0020000000949949026,137.82699584960938 0.0020000000949949026,137.82699584960938 0.0020000000949949026,137.82699584960938z"></path><path stroke-linecap="round" stroke-linejoin="round" fill-opacity="0" stroke="rgb(32,33,36)" stroke-opacity="1" stroke-width="2" d=" M153.50799560546875,207.9739990234375 C94.65299987792969,153.0279998779297 61.645999908447266,137.85699462890625 42.887001037597656,137.81199645996094 C42.887001037597656,137.81199645996094 27.80299949645996,137.83099365234375 27.80299949645996,137.83099365234375 C40.18000030517578,137.23800659179688 62.308998107910156,151.91299438476562 102.34300231933594,207.97799682617188 C102.34300231933594,207.97799682617188 153.51199340820312,207.97799682617188 153.51199340820312,207.97799682617188 C153.51199340820312,207.97799682617188 153.50799560546875,207.9739990234375 153.50799560546875,207.9739990234375z M0.0020000000949949026,137.82699584960938 C0.0020000000949949026,137.82699584960938 0.0020000000949949026,208.2429962158203 0.0020000000949949026,208.2429962158203 C0.0020000000949949026,208.2429962158203 51.17100143432617,207.9739990234375 51.17100143432617,207.9739990234375 C31.1560001373291,151.91299438476562 20.08799934387207,137.23399353027344 13.901000022888184,137.82699584960938 C13.901000022888184,137.82699584960938 0.0020000000949949026,137.82699584960938 0.0020000000949949026,137.82699584960938 C0.0020000000949949026,137.82699584960938 0.0020000000949949026,137.82699584960938 0.0020000000949949026,137.82699584960938z"></path><path fill="rgb(56,168,82)" fill-opacity="1" d=" M0.0020000000949949026,137.82699584960938 C0.0020000000949949026,137.82699584960938 0.0020000000949949026,208.2429962158203 0.0020000000949949026,208.2429962158203 C0.0020000000949949026,208.2429962158203 51.17100143432617,207.9739990234375 51.17100143432617,207.9739990234375 C31.1560001373291,151.91299438476562 20.08799934387207,137.23399353027344 13.901000022888184,137.82699584960938 C13.901000022888184,137.82699584960938 0.0020000000949949026,137.82699584960938 0.0020000000949949026,137.82699584960938 C0.0020000000949949026,137.82699584960938 0.0020000000949949026,137.82699584960938 0.0020000000949949026,137.82699584960938z"></path><path stroke-linecap="round" stroke-linejoin="round" fill-opacity="0" stroke="rgb(32,33,36)" stroke-opacity="1" stroke-width="2" d=" M0.0020000000949949026,137.82699584960938 C0.0020000000949949026,137.82699584960938 0.0020000000949949026,208.2429962158203 0.0020000000949949026,208.2429962158203 C0.0020000000949949026,208.2429962158203 51.17100143432617,207.9739990234375 51.17100143432617,207.9739990234375 C31.1560001373291,151.91299438476562 20.08799934387207,137.23399353027344 13.901000022888184,137.82699584960938 C13.901000022888184,137.82699584960938 0.0020000000949949026,137.82699584960938 0.0020000000949949026,137.82699584960938 C0.0020000000949949026,137.82699584960938 0.0020000000949949026,137.82699584960938 0.0020000000949949026,137.82699584960938z"></path></g></g></svg>